<svg height="1934" width="720" xmlns="http://www.w3.org/2000/svg">
<rect height="1934" fill="#555" width="720"></rect>
<text fill="#7f7" font-family="Courier New" font-size="12" xml:space="preserve">
<tspan x="10" y="26"></tspan>
<tspan x="10" y="42">&gt; npmdoc-read-package-json@0.0.1 test /home/travis/build/npmdoc/node-npmdoc-read-package-json</tspan>
<tspan x="10" y="58">&gt; (set -e; export PORT=$(utility2 shServerPortRandom); utility2 test test.js)</tspan>
<tspan x="10" y="74"></tspan>
<tspan x="10" y="90"></tspan>
<tspan x="10" y="106">[MODE_BUILD=npmTest] - 2017-04-07T22:32:39Z - npm-testing /home/travis/build/npmdoc/node-npmdoc-\</tspan>
<tspan x="10" y="122">read-package-json</tspan>
<tspan x="10" y="138"></tspan>
<tspan x="10" y="154"></tspan>
<tspan x="10" y="170">covering $ /home/travis/.nvm/versions/node/v6.10.2/bin/node /home/travis/build/npmdoc/node-npmdo\</tspan>
<tspan x="10" y="186">c-read-package-json/test.js</tspan>
<tspan x="10" y="202">merging file:///home/travis/build/npmdoc/node-npmdoc-read-package-json/tmp/build/test-report.jso\</tspan>
<tspan x="10" y="218">n to test-report</tspan>
<tspan x="10" y="234">&gt; server listening on http-port 36914</tspan>
<tspan x="10" y="250">created apidoc file:///home/travis/build/npmdoc/node-npmdoc-read-package-json/tmp/build/apidoc.h\</tspan>
<tspan x="10" y="266">tml</tspan>
<tspan x="10" y="282"></tspan>
<tspan x="10" y="298"></tspan>
<tspan x="10" y="314">browserTest - created electron entry-page /home/travis/build/npmdoc/node-npmdoc-read-package-jso\</tspan>
<tspan x="10" y="330">n/tmp/electron.15b4a8c4db60.bcda3f9a0442.html</tspan>
<tspan x="10" y="346"></tspan>
<tspan x="10" y="362">[node test-case 1 of 6 passed] - testCase_buildLib_default</tspan>
<tspan x="10" y="378">[node test-case 2 of 6 passed] - testCase_buildReadme_default</tspan>
<tspan x="10" y="394">[node test-case 3 of 6 passed] - testCase_buildTest_default</tspan>
<tspan x="10" y="410"></tspan>
<tspan x="10" y="426">browserTest - created electron entry-page /home/travis/build/npmdoc/node-npmdoc-read-package-jso\</tspan>
<tspan x="10" y="442">n/tmp/electron.15b4a8c4dec0.53928623dcc94.html</tspan>
<tspan x="10" y="458"></tspan>
<tspan x="10" y="474">Xlib:  extension "RANDR" missing on display ":99.0".</tspan>
<tspan x="10" y="490">Xlib:  extension "RANDR" missing on display ":99.0".</tspan>
<tspan x="10" y="506">&gt; server listening on http-port 64547</tspan>
<tspan x="10" y="522">merging file:///home/travis/build/npmdoc/node-npmdoc-read-package-json/tmp/build/test-report.jso\</tspan>
<tspan x="10" y="538">n to test-report</tspan>
<tspan x="10" y="554">Xlib:  extension "RANDR" missing on display ":99.0".</tspan>
<tspan x="10" y="570">[5892:0407/223241:WARNING:audio_manager.cc(314)] Multiple instances of AudioManager detected</tspan>
<tspan x="10" y="586">[5892:0407/223241:WARNING:audio_manager.cc(275)] Multiple instances of AudioManager detected</tspan>
<tspan x="10" y="602">[5927:0407/223241:ERROR:sandbox_linux.cc(343)] InitializeSandbox() called with multiple threads \</tspan>
<tspan x="10" y="618">in process gpu-process. </tspan>
<tspan x="10" y="634">[5892:0407/223241:ERROR:browser_gpu_channel_host_factory.cc(131)] Failed to create channel.</tspan>
<tspan x="10" y="650">merging file:///home/travis/build/npmdoc/node-npmdoc-read-package-json/tmp/build/test-report.jso\</tspan>
<tspan x="10" y="666">n to test-report</tspan>
<tspan x="10" y="682">Xlib:  extension "RANDR" missing on display ":99.0".</tspan>
<tspan x="10" y="698">[5896:0407/223241:WARNING:audio_manager.cc(314)] Multiple instances of AudioManager detected</tspan>
<tspan x="10" y="714">[5896:0407/223241:WARNING:audio_manager.cc(275)] Multiple instances of AudioManager detected</tspan>
<tspan x="10" y="730">[5969:0407/223241:ERROR:sandbox_linux.cc(343)] InitializeSandbox() called with multiple threads \</tspan>
<tspan x="10" y="746">in process gpu-process. </tspan>
<tspan x="10" y="762"></tspan>
<tspan x="10" y="778">browserTest - opened url /home/travis/build/npmdoc/node-npmdoc-read-package-json/tmp/build/apido\</tspan>
<tspan x="10" y="794">c.html</tspan>
<tspan x="10" y="810"></tspan>
<tspan x="10" y="826">[5896:0407/223241:ERROR:browser_gpu_channel_host_factory.cc(131)] Failed to create channel.</tspan>
<tspan x="10" y="842"></tspan>
<tspan x="10" y="858">browserTest - opened url http://127.0.0.1:36914?modeTest=1</tspan>
<tspan x="10" y="874"></tspan>
<tspan x="10" y="890">[5896:0407/223243:INFO:CONSOLE(249)] "----------|-----------|-----------|-----------|-----------\</tspan>
<tspan x="10" y="906">|</tspan>
<tspan x="10" y="922">File      |   % Stmts |% Branches |   % Funcs |   % Lines |</tspan>
<tspan x="10" y="938">----------|-----------|-----------|-----------|-----------|</tspan>
<tspan x="10" y="954">----------|-----------|-----------|-----------|-----------|</tspan>
<tspan x="10" y="970">All files |       100 |       100 |       100 |       100 |</tspan>
<tspan x="10" y="986">----------|-----------|-----------|-----------|-----------|</tspan>
<tspan x="10" y="1002">", source: file:///home/travis/build/npmdoc/node-npmdoc-read-package-json/tmp/electron.15b4a8c4d\</tspan>
<tspan x="10" y="1018">ec0.53928623dcc94.html (249)</tspan>
<tspan x="10" y="1034">[5896:0407/223243:INFO:CONSOLE(249)] "created coverage file:///tmp/build/coverage.html/index.htm\</tspan>
<tspan x="10" y="1050">l", source: file:///home/travis/build/npmdoc/node-npmdoc-read-package-json/tmp/electron.15b4a8c4\</tspan>
<tspan x="10" y="1066">dec0.53928623dcc94.html (249)</tspan>
<tspan x="10" y="1082">[node test-case 4 of 6 passed] - testCase_buildApp_default</tspan>
<tspan x="10" y="1098"></tspan>
<tspan x="10" y="1114">browserTest - exit-code 1 - /home/travis/build/npmdoc/node-npmdoc-read-package-json/tmp/build/ap\</tspan>
<tspan x="10" y="1130">idoc.html</tspan>
<tspan x="10" y="1146"></tspan>
<tspan x="10" y="1162">[node test-case 5 of 6 passed] - testCase_buildApidoc_default</tspan>
<tspan x="10" y="1178"></tspan>
<tspan x="10" y="1194">browserTest - created screenCapture file:///home/travis/build/npmdoc/node-npmdoc-read-package-js\</tspan>
<tspan x="10" y="1210">on/tmp/build/screenCapture.%2F.png</tspan>
<tspan x="10" y="1226"></tspan>
<tspan x="10" y="1242">browserTest - created screenCapture file:///home/travis/build/npmdoc/node-npmdoc-read-package-js\</tspan>
<tspan x="10" y="1258">on/tmp/build/screenCapture.%2F.html</tspan>
<tspan x="10" y="1274"></tspan>
<tspan x="10" y="1290">browserTest - exit-code 0 - http://127.0.0.1:36914?modeTest=1</tspan>
<tspan x="10" y="1306"></tspan>
<tspan x="10" y="1322"></tspan>
<tspan x="10" y="1338">browserTest - merged coverage from /home/travis/build/npmdoc/node-npmdoc-read-package-json/tmp/c\</tspan>
<tspan x="10" y="1354">overage.%2F.json</tspan>
<tspan x="10" y="1370"></tspan>
<tspan x="10" y="1386"></tspan>
<tspan x="10" y="1402">browserTest - merging test-report from /home/travis/build/npmdoc/node-npmdoc-read-package-json/t\</tspan>
<tspan x="10" y="1418">mp/test-report.%2F.json</tspan>
<tspan x="10" y="1434"></tspan>
<tspan x="10" y="1450">[node test-case 6 of 6 passed] - testCase_webpage_default</tspan>
<tspan x="10" y="1466">--------------------------------------|-----------|-----------|-----------|-----------|</tspan>
<tspan x="10" y="1482">File                                  |   % Stmts |% Branches |   % Funcs |   % Lines |</tspan>
<tspan x="10" y="1498">--------------------------------------|-----------|-----------|-----------|-----------|</tspan>
<tspan x="10" y="1514">   node-npmdoc-read-package-json/     |       100 |       100 |       100 |       100 |</tspan>
<tspan x="10" y="1530">      example.js                      |       100 |       100 |       100 |       100 |</tspan>
<tspan x="10" y="1546">      lib.npmdoc_read_package_json.js |       100 |       100 |       100 |       100 |</tspan>
<tspan x="10" y="1562">      test.js                         |       100 |       100 |       100 |       100 |</tspan>
<tspan x="10" y="1578">--------------------------------------|-----------|-----------|-----------|-----------|</tspan>
<tspan x="10" y="1594">All files                             |       100 |       100 |       100 |       100 |</tspan>
<tspan x="10" y="1610">--------------------------------------|-----------|-----------|-----------|-----------|</tspan>
<tspan x="10" y="1626"></tspan>
<tspan x="10" y="1642">created coverage file:///home/travis/build/npmdoc/node-npmdoc-read-package-json/tmp/build/covera\</tspan>
<tspan x="10" y="1658">ge.html/index.html</tspan>
<tspan x="10" y="1674">merging file:///home/travis/build/npmdoc/node-npmdoc-read-package-json/tmp/build/test-report.jso\</tspan>
<tspan x="10" y="1690">n to test-report</tspan>
<tspan x="10" y="1706"></tspan>
<tspan x="10" y="1722">-------------------------------------------------------</tspan>
<tspan x="10" y="1738">| test-report - buildNpmdoc - node - linux v6.10.2 - 2017-04-07T22:32:00.023Z</tspan>
<tspan x="10" y="1754">|   55307 ms            0 failed        6 passed      |</tspan>
<tspan x="10" y="1770">-------------------------------------------------------</tspan>
<tspan x="10" y="1786"></tspan>
<tspan x="10" y="1802">created test-report file:///home/travis/build/npmdoc/node-npmdoc-read-package-json/tmp/build/tes\</tspan>
<tspan x="10" y="1818">t-report.html</tspan>
<tspan x="10" y="1834"></tspan>
<tspan x="10" y="1850"></tspan>
<tspan x="10" y="1866">npmTest - 0 failed tests</tspan>
<tspan x="10" y="1882"></tspan>
<tspan x="10" y="1898"></tspan>
<tspan x="10" y="1914">[MODE_BUILD=npmTest] - 2017-04-07T22:32:58Z - EXIT_CODE - 0</tspan>
</text>
</svg>
